<?xml version="1.0" encoding="UTF-8" standalone="no"?>
<!DOCTYPE svg PUBLIC "-//W3C//DTD SVG 1.1//EN" "http://www.w3.org/Graphics/SVG/1.1/DTD/svg11.dtd">
<svg width="100%" height="100%" viewBox="0 0 27 28" version="1.1" xmlns="http://www.w3.org/2000/svg" xmlns:xlink="http://www.w3.org/1999/xlink" xml:space="preserve" xmlns:serif="http://www.serif.com/" style="fill-rule:evenodd;clip-rule:evenodd;stroke-linejoin:round;stroke-miterlimit:2;">
    <g id="Guatemalta-logo">
        <g id="Guatemalta-logo-2">
            <clipPath id="_clip1">
                <rect x="0" y="0" width="198.145" height="28.136"/>
            </clipPath>
            <g clip-path="url(#_clip1)">
                <g id="Path_20" transform="matrix(1,0,0,1,0,-17.562)">
                    <path d="M27.032,42.248C27.032,43.357 26.119,44.27 25.01,44.27C23.901,44.27 22.988,43.357 22.988,42.248C22.988,42.246 22.988,42.243 22.988,42.241C22.988,37.048 18.714,32.774 13.521,32.774C12.283,32.774 11.057,33.017 9.912,33.489C8.507,32.908 7.262,31.998 6.283,30.835C10.691,28.038 16.341,28.038 20.749,30.835C21.892,31.563 22.92,32.458 23.8,33.489C25.887,35.929 27.033,39.037 27.031,42.248M3.231,33.489C1.144,35.929 -0.002,39.037 0,42.248C0,43.357 0.913,44.27 2.022,44.27C3.131,44.27 4.044,43.357 4.044,42.248C4.042,40.011 4.837,37.845 6.284,36.14C5.141,35.412 4.112,34.519 3.231,33.489" style="fill:white;fill-rule:nonzero;"/>
                </g>
                <g id="Path_21" transform="matrix(1,0,0,1,0,-3.12)">
                    <path d="M20.749,21.7C16.341,24.497 10.691,24.497 6.283,21.7C5.14,20.972 4.111,20.078 3.23,19.049C1.143,16.606 -0.003,13.496 0,10.284L0,7.128C-0,6.019 0.913,5.106 2.022,5.106C3.131,5.106 4.044,6.019 4.044,7.128L4.044,10.285C4.044,15.482 8.321,19.758 13.518,19.758C14.754,19.758 15.977,19.517 17.12,19.047C18.526,19.626 19.771,20.536 20.749,21.7M25.009,5.1C23.901,5.101 22.989,6.014 22.989,7.122C22.989,7.123 22.989,7.123 22.989,7.124L22.989,10.281C22.991,12.518 22.197,14.684 20.749,16.389C21.892,17.118 22.921,18.014 23.8,19.047C25.888,16.606 27.035,13.496 27.031,10.284L27.031,7.128C27.031,7.127 27.031,7.126 27.031,7.125C27.031,6.015 26.119,5.102 25.009,5.1" style="fill:rgb(169,203,52);fill-rule:nonzero;"/>
                </g>
                <g id="Path_22" transform="matrix(1,0,0,1,-16.459,-3.549)">
                    <path d="M26.929,8.852C26.93,7.182 28.305,5.808 29.975,5.808C31.646,5.808 33.021,7.183 33.021,8.854C33.021,10.525 31.646,11.9 29.975,11.9C28.304,11.9 26.929,10.525 26.929,8.854" style="fill:white;fill-rule:nonzero;"/>
                </g>
            </g>
        </g>
    </g>
</svg>
